<mxfile host="Electron" agent="Mozilla/5.0 (Windows NT 10.0; Win64; x64) AppleWebKit/537.36 (KHTML, like Gecko) draw.io/26.0.4 Chrome/128.0.6613.186 Electron/32.2.5 Safari/537.36" version="26.0.4">
  <diagram name="Page-1" id="UIiPlT-28ukwRSiEZE_o">
    <mxGraphModel dx="1320" dy="2471" grid="1" gridSize="10" guides="1" tooltips="1" connect="1" arrows="1" fold="1" page="1" pageScale="1" pageWidth="827" pageHeight="1169" math="0" shadow="0">
      <root>
        <mxCell id="0" />
        <mxCell id="1" parent="0" />
        <mxCell id="t2WURf8z4EQmU1Dqq6Kp-4" value="Actor" style="shape=umlActor;verticalLabelPosition=bottom;verticalAlign=top;html=1;outlineConnect=0;" vertex="1" parent="1">
          <mxGeometry x="50" y="40" width="30" height="60" as="geometry" />
        </mxCell>
        <mxCell id="t2WURf8z4EQmU1Dqq6Kp-6" value="Actor" style="shape=umlActor;verticalLabelPosition=bottom;verticalAlign=top;html=1;outlineConnect=0;" vertex="1" parent="1">
          <mxGeometry x="120" y="40" width="30" height="60" as="geometry" />
        </mxCell>
        <mxCell id="t2WURf8z4EQmU1Dqq6Kp-7" value="Actor" style="shape=umlActor;verticalLabelPosition=bottom;verticalAlign=top;html=1;outlineConnect=0;" vertex="1" parent="1">
          <mxGeometry x="50" y="1080" width="30" height="60" as="geometry" />
        </mxCell>
        <mxCell id="t2WURf8z4EQmU1Dqq6Kp-8" value="Actor" style="shape=umlActor;verticalLabelPosition=bottom;verticalAlign=top;html=1;outlineConnect=0;" vertex="1" parent="1">
          <mxGeometry x="120" y="1080" width="30" height="60" as="geometry" />
        </mxCell>
        <mxCell id="t2WURf8z4EQmU1Dqq6Kp-9" value="" style="endArrow=none;dashed=1;html=1;dashPattern=1 3;strokeWidth=2;rounded=0;exitX=0.5;exitY=0;exitDx=0;exitDy=0;exitPerimeter=0;" edge="1" parent="1" source="t2WURf8z4EQmU1Dqq6Kp-7">
          <mxGeometry width="50" height="50" relative="1" as="geometry">
            <mxPoint x="50" y="500" as="sourcePoint" />
            <mxPoint x="70" y="130" as="targetPoint" />
          </mxGeometry>
        </mxCell>
        <mxCell id="t2WURf8z4EQmU1Dqq6Kp-13" value="" style="endArrow=none;dashed=1;html=1;dashPattern=1 3;strokeWidth=2;rounded=0;exitX=0.5;exitY=0;exitDx=0;exitDy=0;exitPerimeter=0;" edge="1" parent="1" source="t2WURf8z4EQmU1Dqq6Kp-8">
          <mxGeometry width="50" height="50" relative="1" as="geometry">
            <mxPoint x="130" y="1060" as="sourcePoint" />
            <mxPoint x="130" y="130" as="targetPoint" />
          </mxGeometry>
        </mxCell>
        <mxCell id="t2WURf8z4EQmU1Dqq6Kp-14" value="" style="endArrow=classic;html=1;rounded=0;" edge="1" parent="1">
          <mxGeometry width="50" height="50" relative="1" as="geometry">
            <mxPoint x="73" y="230" as="sourcePoint" />
            <mxPoint x="413" y="230" as="targetPoint" />
            <Array as="points">
              <mxPoint x="133" y="230" />
            </Array>
          </mxGeometry>
        </mxCell>
        <mxCell id="t2WURf8z4EQmU1Dqq6Kp-15" value="" style="endArrow=classic;html=1;rounded=0;" edge="1" parent="1">
          <mxGeometry width="50" height="50" relative="1" as="geometry">
            <mxPoint x="70" y="350" as="sourcePoint" />
            <mxPoint x="410" y="350" as="targetPoint" />
            <Array as="points">
              <mxPoint x="130" y="350" />
            </Array>
          </mxGeometry>
        </mxCell>
        <mxCell id="t2WURf8z4EQmU1Dqq6Kp-16" value="" style="endArrow=classic;html=1;rounded=0;" edge="1" parent="1">
          <mxGeometry width="50" height="50" relative="1" as="geometry">
            <mxPoint x="134" y="550" as="sourcePoint" />
            <mxPoint x="414" y="550" as="targetPoint" />
            <Array as="points">
              <mxPoint x="194" y="550" />
            </Array>
          </mxGeometry>
        </mxCell>
        <mxCell id="t2WURf8z4EQmU1Dqq6Kp-17" value="" style="endArrow=classic;html=1;rounded=0;" edge="1" parent="1">
          <mxGeometry width="50" height="50" relative="1" as="geometry">
            <mxPoint x="134" y="780" as="sourcePoint" />
            <mxPoint x="414" y="780" as="targetPoint" />
            <Array as="points">
              <mxPoint x="194" y="780" />
            </Array>
          </mxGeometry>
        </mxCell>
        <mxCell id="t2WURf8z4EQmU1Dqq6Kp-18" value="" style="endArrow=none;dashed=1;html=1;dashPattern=1 3;strokeWidth=2;rounded=0;" edge="1" parent="1">
          <mxGeometry width="50" height="50" relative="1" as="geometry">
            <mxPoint x="412" y="1070" as="sourcePoint" />
            <mxPoint x="412" y="120" as="targetPoint" />
          </mxGeometry>
        </mxCell>
        <mxCell id="t2WURf8z4EQmU1Dqq6Kp-20" value="INTERFACE UTILISATEUR" style="rounded=0;whiteSpace=wrap;html=1;" vertex="1" parent="1">
          <mxGeometry x="324" y="40" width="180" height="60" as="geometry" />
        </mxCell>
        <mxCell id="t2WURf8z4EQmU1Dqq6Kp-22" value="INTERFACE UTILISATEUR" style="rounded=0;whiteSpace=wrap;html=1;" vertex="1" parent="1">
          <mxGeometry x="324" y="1080" width="186" height="60" as="geometry" />
        </mxCell>
        <mxCell id="t2WURf8z4EQmU1Dqq6Kp-23" value="ACCEDER A ALA LISTE DES DEVOIR" style="text;html=1;align=center;verticalAlign=middle;resizable=0;points=[];autosize=1;strokeColor=none;fillColor=none;" vertex="1" parent="1">
          <mxGeometry x="70" y="200" width="230" height="30" as="geometry" />
        </mxCell>
        <mxCell id="t2WURf8z4EQmU1Dqq6Kp-24" value="SOUMETTRE UN DEVOIR" style="text;html=1;align=center;verticalAlign=middle;resizable=0;points=[];autosize=1;strokeColor=none;fillColor=none;" vertex="1" parent="1">
          <mxGeometry x="70" y="320" width="170" height="30" as="geometry" />
        </mxCell>
        <mxCell id="t2WURf8z4EQmU1Dqq6Kp-25" value="CONSULTER LES DEVOIR SOUMIS" style="text;html=1;align=center;verticalAlign=middle;resizable=0;points=[];autosize=1;strokeColor=none;fillColor=none;" vertex="1" parent="1">
          <mxGeometry x="150" y="520" width="220" height="30" as="geometry" />
        </mxCell>
        <mxCell id="t2WURf8z4EQmU1Dqq6Kp-26" value="NOTER UN DEVOIR" style="text;html=1;align=center;verticalAlign=middle;resizable=0;points=[];autosize=1;strokeColor=none;fillColor=none;" vertex="1" parent="1">
          <mxGeometry x="150" y="748" width="140" height="30" as="geometry" />
        </mxCell>
        <mxCell id="t2WURf8z4EQmU1Dqq6Kp-32" value="Etudiant" style="text;html=1;align=center;verticalAlign=middle;resizable=0;points=[];autosize=1;strokeColor=none;fillColor=none;" vertex="1" parent="1">
          <mxGeometry x="30" y="1169" width="70" height="30" as="geometry" />
        </mxCell>
        <mxCell id="t2WURf8z4EQmU1Dqq6Kp-33" value="Enseignant" style="text;html=1;align=center;verticalAlign=middle;resizable=0;points=[];autosize=1;strokeColor=none;fillColor=none;" vertex="1" parent="1">
          <mxGeometry x="100" y="1169" width="80" height="30" as="geometry" />
        </mxCell>
        <mxCell id="t2WURf8z4EQmU1Dqq6Kp-34" value="Etudiant" style="text;html=1;align=center;verticalAlign=middle;resizable=0;points=[];autosize=1;strokeColor=none;fillColor=none;" vertex="1" parent="1">
          <mxGeometry x="25" y="-2" width="70" height="30" as="geometry" />
        </mxCell>
        <mxCell id="t2WURf8z4EQmU1Dqq6Kp-35" value="Enseignant" style="text;html=1;align=center;verticalAlign=middle;resizable=0;points=[];autosize=1;strokeColor=none;fillColor=none;" vertex="1" parent="1">
          <mxGeometry x="90" y="-2" width="80" height="30" as="geometry" />
        </mxCell>
        <mxCell id="t2WURf8z4EQmU1Dqq6Kp-39" value="" style="endArrow=classic;html=1;rounded=0;" edge="1" parent="1">
          <mxGeometry width="50" height="50" relative="1" as="geometry">
            <mxPoint x="820" y="1020" as="sourcePoint" />
            <mxPoint x="414" y="1020" as="targetPoint" />
          </mxGeometry>
        </mxCell>
        <mxCell id="t2WURf8z4EQmU1Dqq6Kp-40" value="" style="endArrow=none;dashed=1;html=1;dashPattern=1 3;strokeWidth=2;rounded=0;" edge="1" parent="1">
          <mxGeometry width="50" height="50" relative="1" as="geometry">
            <mxPoint x="827" y="1080" as="sourcePoint" />
            <mxPoint x="827" y="120" as="targetPoint" />
          </mxGeometry>
        </mxCell>
        <mxCell id="t2WURf8z4EQmU1Dqq6Kp-41" value="" style="endArrow=none;html=1;rounded=0;" edge="1" parent="1" source="t2WURf8z4EQmU1Dqq6Kp-42">
          <mxGeometry width="50" height="50" relative="1" as="geometry">
            <mxPoint y="440" as="sourcePoint" />
            <mxPoint x="1302.9090576171875" y="440" as="targetPoint" />
          </mxGeometry>
        </mxCell>
        <mxCell id="t2WURf8z4EQmU1Dqq6Kp-43" value="" style="endArrow=none;html=1;rounded=0;" edge="1" parent="1" target="t2WURf8z4EQmU1Dqq6Kp-42">
          <mxGeometry width="50" height="50" relative="1" as="geometry">
            <mxPoint y="440" as="sourcePoint" />
            <mxPoint x="1302.9090576171875" y="440" as="targetPoint" />
          </mxGeometry>
        </mxCell>
        <mxCell id="t2WURf8z4EQmU1Dqq6Kp-42" value="Evaluation d&#39;enseignant" style="rounded=0;whiteSpace=wrap;html=1;" vertex="1" parent="1">
          <mxGeometry x="560" y="410" width="120" height="60" as="geometry" />
        </mxCell>
        <mxCell id="t2WURf8z4EQmU1Dqq6Kp-44" value="" style="endArrow=none;html=1;rounded=0;" edge="1" parent="1" source="t2WURf8z4EQmU1Dqq6Kp-36">
          <mxGeometry width="50" height="50" relative="1" as="geometry">
            <mxPoint x="70" y="930" as="sourcePoint" />
            <mxPoint x="1281.45458984375" y="930" as="targetPoint" />
          </mxGeometry>
        </mxCell>
        <mxCell id="t2WURf8z4EQmU1Dqq6Kp-45" value="" style="endArrow=none;html=1;rounded=0;" edge="1" parent="1" target="t2WURf8z4EQmU1Dqq6Kp-36">
          <mxGeometry width="50" height="50" relative="1" as="geometry">
            <mxPoint x="70" y="930" as="sourcePoint" />
            <mxPoint x="1281.45458984375" y="930" as="targetPoint" />
          </mxGeometry>
        </mxCell>
        <mxCell id="t2WURf8z4EQmU1Dqq6Kp-36" value="Notification" style="rounded=0;whiteSpace=wrap;html=1;" vertex="1" parent="1">
          <mxGeometry x="470" y="900" width="240" height="60" as="geometry" />
        </mxCell>
        <mxCell id="t2WURf8z4EQmU1Dqq6Kp-46" value="" style="endArrow=classic;html=1;rounded=0;" edge="1" parent="1">
          <mxGeometry width="50" height="50" relative="1" as="geometry">
            <mxPoint x="410" y="1060" as="sourcePoint" />
            <mxPoint x="70" y="1060" as="targetPoint" />
          </mxGeometry>
        </mxCell>
        <mxCell id="t2WURf8z4EQmU1Dqq6Kp-47" value="note et commentaire" style="text;html=1;align=center;verticalAlign=middle;resizable=0;points=[];autosize=1;strokeColor=none;fillColor=none;" vertex="1" parent="1">
          <mxGeometry x="130" y="1030" width="130" height="30" as="geometry" />
        </mxCell>
        <mxCell id="t2WURf8z4EQmU1Dqq6Kp-48" value="SERVICE&amp;nbsp; DEVOIR" style="rounded=0;whiteSpace=wrap;html=1;" vertex="1" parent="1">
          <mxGeometry x="710" y="40" width="220" height="60" as="geometry" />
        </mxCell>
        <mxCell id="t2WURf8z4EQmU1Dqq6Kp-49" value="SERVICE&amp;nbsp; DEVOIR" style="rounded=0;whiteSpace=wrap;html=1;" vertex="1" parent="1">
          <mxGeometry x="715" y="1080" width="210" height="60" as="geometry" />
        </mxCell>
        <mxCell id="t2WURf8z4EQmU1Dqq6Kp-50" value="Notifiction de note" style="text;html=1;align=center;verticalAlign=middle;resizable=0;points=[];autosize=1;strokeColor=none;fillColor=none;" vertex="1" parent="1">
          <mxGeometry x="430" y="988" width="120" height="30" as="geometry" />
        </mxCell>
        <mxCell id="t2WURf8z4EQmU1Dqq6Kp-51" value="" style="endArrow=classic;html=1;rounded=0;" edge="1" parent="1">
          <mxGeometry width="50" height="50" relative="1" as="geometry">
            <mxPoint x="1241" y="384.09" as="sourcePoint" />
            <mxPoint x="824" y="384.09" as="targetPoint" />
          </mxGeometry>
        </mxCell>
        <mxCell id="t2WURf8z4EQmU1Dqq6Kp-52" value="CONFIRMATION DE NOTATION" style="text;html=1;align=center;verticalAlign=middle;resizable=0;points=[];autosize=1;strokeColor=none;fillColor=none;" vertex="1" parent="1">
          <mxGeometry x="413" y="840" width="200" height="30" as="geometry" />
        </mxCell>
        <mxCell id="t2WURf8z4EQmU1Dqq6Kp-53" value="" style="endArrow=classic;html=1;rounded=0;" edge="1" parent="1">
          <mxGeometry width="50" height="50" relative="1" as="geometry">
            <mxPoint x="413" y="760" as="sourcePoint" />
            <mxPoint x="820" y="760" as="targetPoint" />
          </mxGeometry>
        </mxCell>
        <mxCell id="t2WURf8z4EQmU1Dqq6Kp-54" value="" style="endArrow=classic;html=1;rounded=0;" edge="1" parent="1">
          <mxGeometry width="50" height="50" relative="1" as="geometry">
            <mxPoint x="420" y="214.09000000000003" as="sourcePoint" />
            <mxPoint x="827" y="214.09000000000003" as="targetPoint" />
          </mxGeometry>
        </mxCell>
        <mxCell id="t2WURf8z4EQmU1Dqq6Kp-55" value="" style="endArrow=classic;html=1;rounded=0;" edge="1" parent="1">
          <mxGeometry width="50" height="50" relative="1" as="geometry">
            <mxPoint x="840" y="880" as="sourcePoint" />
            <mxPoint x="423" y="880" as="targetPoint" />
          </mxGeometry>
        </mxCell>
        <mxCell id="t2WURf8z4EQmU1Dqq6Kp-56" value="ENVOYE DE NOTE ET COMMENTAIRE" style="text;html=1;align=center;verticalAlign=middle;resizable=0;points=[];autosize=1;strokeColor=none;fillColor=none;" vertex="1" parent="1">
          <mxGeometry x="413" y="728" width="240" height="30" as="geometry" />
        </mxCell>
        <mxCell id="t2WURf8z4EQmU1Dqq6Kp-57" value="AFFICHER LES DEVOIR SOUMIS" style="text;html=1;align=center;verticalAlign=middle;resizable=0;points=[];autosize=1;strokeColor=none;fillColor=none;" vertex="1" parent="1">
          <mxGeometry x="430" y="618" width="210" height="30" as="geometry" />
        </mxCell>
        <mxCell id="t2WURf8z4EQmU1Dqq6Kp-58" value="RECUPEARTION DES DEVOIR SOUMIS" style="text;html=1;align=center;verticalAlign=middle;resizable=0;points=[];autosize=1;strokeColor=none;fillColor=none;" vertex="1" parent="1">
          <mxGeometry x="413" y="498" width="250" height="30" as="geometry" />
        </mxCell>
        <mxCell id="t2WURf8z4EQmU1Dqq6Kp-59" value="" style="endArrow=none;html=1;rounded=0;" edge="1" parent="1" source="t2WURf8z4EQmU1Dqq6Kp-60">
          <mxGeometry width="50" height="50" relative="1" as="geometry">
            <mxPoint y="150" as="sourcePoint" />
            <mxPoint x="1320" y="150" as="targetPoint" />
          </mxGeometry>
        </mxCell>
        <mxCell id="t2WURf8z4EQmU1Dqq6Kp-61" value="" style="endArrow=none;html=1;rounded=0;" edge="1" parent="1" target="t2WURf8z4EQmU1Dqq6Kp-60">
          <mxGeometry width="50" height="50" relative="1" as="geometry">
            <mxPoint y="150" as="sourcePoint" />
            <mxPoint x="1320" y="150" as="targetPoint" />
          </mxGeometry>
        </mxCell>
        <mxCell id="t2WURf8z4EQmU1Dqq6Kp-60" value="SOUMISSION DE DEVOIR" style="rounded=0;whiteSpace=wrap;html=1;" vertex="1" parent="1">
          <mxGeometry x="550" y="120" width="120" height="60" as="geometry" />
        </mxCell>
        <mxCell id="t2WURf8z4EQmU1Dqq6Kp-62" value="" style="endArrow=classic;html=1;rounded=0;" edge="1" parent="1">
          <mxGeometry width="50" height="50" relative="1" as="geometry">
            <mxPoint x="413" y="340" as="sourcePoint" />
            <mxPoint x="820" y="340" as="targetPoint" />
          </mxGeometry>
        </mxCell>
        <mxCell id="t2WURf8z4EQmU1Dqq6Kp-63" value="" style="endArrow=classic;html=1;rounded=0;" edge="1" parent="1">
          <mxGeometry width="50" height="50" relative="1" as="geometry">
            <mxPoint x="420" y="528" as="sourcePoint" />
            <mxPoint x="827" y="528" as="targetPoint" />
          </mxGeometry>
        </mxCell>
        <mxCell id="t2WURf8z4EQmU1Dqq6Kp-64" value="RECUPERATION LA LISTE DE DEVOIR" style="text;html=1;align=center;verticalAlign=middle;resizable=0;points=[];autosize=1;strokeColor=none;fillColor=none;" vertex="1" parent="1">
          <mxGeometry x="418" y="188" width="240" height="30" as="geometry" />
        </mxCell>
        <mxCell id="t2WURf8z4EQmU1Dqq6Kp-65" value="TRANSMISSION DES FICHER" style="text;html=1;align=center;verticalAlign=middle;resizable=0;points=[];autosize=1;strokeColor=none;fillColor=none;" vertex="1" parent="1">
          <mxGeometry x="413" y="310" width="190" height="30" as="geometry" />
        </mxCell>
        <mxCell id="t2WURf8z4EQmU1Dqq6Kp-66" value="" style="endArrow=classic;html=1;rounded=0;" edge="1" parent="1">
          <mxGeometry width="50" height="50" relative="1" as="geometry">
            <mxPoint x="840" y="660" as="sourcePoint" />
            <mxPoint x="423" y="660" as="targetPoint" />
          </mxGeometry>
        </mxCell>
        <mxCell id="t2WURf8z4EQmU1Dqq6Kp-67" value="COMFIRMATION DE SOUMISSION" style="text;html=1;align=center;verticalAlign=middle;resizable=0;points=[];autosize=1;strokeColor=none;fillColor=none;" vertex="1" parent="1">
          <mxGeometry x="403" y="370" width="220" height="30" as="geometry" />
        </mxCell>
        <mxCell id="t2WURf8z4EQmU1Dqq6Kp-68" value="" style="endArrow=classic;html=1;rounded=0;" edge="1" parent="1">
          <mxGeometry width="50" height="50" relative="1" as="geometry">
            <mxPoint x="828.5" y="280" as="sourcePoint" />
            <mxPoint x="411.5" y="280" as="targetPoint" />
          </mxGeometry>
        </mxCell>
        <mxCell id="t2WURf8z4EQmU1Dqq6Kp-69" value="AFFICHER LES DEVOIR" style="text;html=1;align=center;verticalAlign=middle;resizable=0;points=[];autosize=1;strokeColor=none;fillColor=none;" vertex="1" parent="1">
          <mxGeometry x="410" y="250" width="160" height="30" as="geometry" />
        </mxCell>
        <mxCell id="t2WURf8z4EQmU1Dqq6Kp-70" value="" style="endArrow=none;dashed=1;html=1;dashPattern=1 3;strokeWidth=2;rounded=0;" edge="1" parent="1">
          <mxGeometry width="50" height="50" relative="1" as="geometry">
            <mxPoint x="1241" y="1060" as="sourcePoint" />
            <mxPoint x="1241" y="80" as="targetPoint" />
          </mxGeometry>
        </mxCell>
        <mxCell id="t2WURf8z4EQmU1Dqq6Kp-71" value="BASE DE DONNER" style="rounded=0;whiteSpace=wrap;html=1;" vertex="1" parent="1">
          <mxGeometry x="1130" y="40" width="241" height="60" as="geometry" />
        </mxCell>
        <mxCell id="t2WURf8z4EQmU1Dqq6Kp-72" value="BASE DE DONNER" style="rounded=0;whiteSpace=wrap;html=1;" vertex="1" parent="1">
          <mxGeometry x="1130" y="1070" width="210" height="60" as="geometry" />
        </mxCell>
        <mxCell id="t2WURf8z4EQmU1Dqq6Kp-73" value="" style="endArrow=classic;html=1;rounded=0;" edge="1" parent="1">
          <mxGeometry width="50" height="50" relative="1" as="geometry">
            <mxPoint x="831" y="200" as="sourcePoint" />
            <mxPoint x="1241" y="200" as="targetPoint" />
          </mxGeometry>
        </mxCell>
        <mxCell id="t2WURf8z4EQmU1Dqq6Kp-74" value="" style="endArrow=classic;html=1;rounded=0;" edge="1" parent="1">
          <mxGeometry width="50" height="50" relative="1" as="geometry">
            <mxPoint x="831" y="320" as="sourcePoint" />
            <mxPoint x="1241" y="320" as="targetPoint" />
          </mxGeometry>
        </mxCell>
        <mxCell id="t2WURf8z4EQmU1Dqq6Kp-75" value="" style="endArrow=classic;html=1;rounded=0;" edge="1" parent="1">
          <mxGeometry width="50" height="50" relative="1" as="geometry">
            <mxPoint x="827" y="400" as="sourcePoint" />
            <mxPoint x="410" y="400" as="targetPoint" />
          </mxGeometry>
        </mxCell>
        <mxCell id="t2WURf8z4EQmU1Dqq6Kp-76" value="" style="endArrow=classic;html=1;rounded=0;" edge="1" parent="1">
          <mxGeometry width="50" height="50" relative="1" as="geometry">
            <mxPoint x="1244" y="250" as="sourcePoint" />
            <mxPoint x="827" y="250" as="targetPoint" />
          </mxGeometry>
        </mxCell>
        <mxCell id="t2WURf8z4EQmU1Dqq6Kp-77" value="EFFECTUER UND DEVOIR" style="text;html=1;align=center;verticalAlign=middle;resizable=0;points=[];autosize=1;strokeColor=none;fillColor=none;" vertex="1" parent="1">
          <mxGeometry x="827" y="180" width="170" height="30" as="geometry" />
        </mxCell>
        <mxCell id="t2WURf8z4EQmU1Dqq6Kp-78" value="RETOURNER UN DEVOIR" style="text;html=1;align=center;verticalAlign=middle;resizable=0;points=[];autosize=1;strokeColor=none;fillColor=none;" vertex="1" parent="1">
          <mxGeometry x="827" y="230" width="170" height="30" as="geometry" />
        </mxCell>
        <mxCell id="t2WURf8z4EQmU1Dqq6Kp-79" value="ENREGISTRE LE DEVOIR" style="text;html=1;align=center;verticalAlign=middle;resizable=0;points=[];autosize=1;strokeColor=none;fillColor=none;" vertex="1" parent="1">
          <mxGeometry x="827" y="298" width="170" height="30" as="geometry" />
        </mxCell>
        <mxCell id="t2WURf8z4EQmU1Dqq6Kp-80" value="CONFIRMATION" style="text;html=1;align=center;verticalAlign=middle;resizable=0;points=[];autosize=1;strokeColor=none;fillColor=none;" vertex="1" parent="1">
          <mxGeometry x="827" y="358" width="120" height="30" as="geometry" />
        </mxCell>
        <mxCell id="t2WURf8z4EQmU1Dqq6Kp-81" value="" style="endArrow=classic;html=1;rounded=0;" edge="1" parent="1">
          <mxGeometry width="50" height="50" relative="1" as="geometry">
            <mxPoint x="827" y="560" as="sourcePoint" />
            <mxPoint x="1237" y="560" as="targetPoint" />
          </mxGeometry>
        </mxCell>
        <mxCell id="t2WURf8z4EQmU1Dqq6Kp-82" value="" style="endArrow=classic;html=1;rounded=0;" edge="1" parent="1">
          <mxGeometry width="50" height="50" relative="1" as="geometry">
            <mxPoint x="827" y="778" as="sourcePoint" />
            <mxPoint x="1237" y="778" as="targetPoint" />
          </mxGeometry>
        </mxCell>
        <mxCell id="t2WURf8z4EQmU1Dqq6Kp-83" value="" style="endArrow=classic;html=1;rounded=0;" edge="1" parent="1">
          <mxGeometry width="50" height="50" relative="1" as="geometry">
            <mxPoint x="1244" y="840" as="sourcePoint" />
            <mxPoint x="827" y="840" as="targetPoint" />
          </mxGeometry>
        </mxCell>
        <mxCell id="t2WURf8z4EQmU1Dqq6Kp-84" value="" style="endArrow=classic;html=1;rounded=0;" edge="1" parent="1">
          <mxGeometry width="50" height="50" relative="1" as="geometry">
            <mxPoint x="1240" y="632.09" as="sourcePoint" />
            <mxPoint x="823" y="632.09" as="targetPoint" />
          </mxGeometry>
        </mxCell>
        <mxCell id="t2WURf8z4EQmU1Dqq6Kp-85" value="REQUETE POUR DEVOIR SOUMIS" style="text;html=1;align=center;verticalAlign=middle;resizable=0;points=[];autosize=1;strokeColor=none;fillColor=none;" vertex="1" parent="1">
          <mxGeometry x="827" y="528" width="220" height="30" as="geometry" />
        </mxCell>
        <mxCell id="t2WURf8z4EQmU1Dqq6Kp-86" value="RETOURNER LES DEVOIR SOUMIS" style="text;html=1;align=center;verticalAlign=middle;resizable=0;points=[];autosize=1;strokeColor=none;fillColor=none;" vertex="1" parent="1">
          <mxGeometry x="822" y="610" width="230" height="30" as="geometry" />
        </mxCell>
        <mxCell id="t2WURf8z4EQmU1Dqq6Kp-88" value="METTRE A JOUR LE DEVOIR AVEC LA NOTE" style="text;html=1;align=center;verticalAlign=middle;resizable=0;points=[];autosize=1;strokeColor=none;fillColor=none;" vertex="1" parent="1">
          <mxGeometry x="827" y="758" width="270" height="30" as="geometry" />
        </mxCell>
        <mxCell id="t2WURf8z4EQmU1Dqq6Kp-89" value="CONFIRMATION DE MIS A JOUR" style="text;html=1;align=center;verticalAlign=middle;resizable=0;points=[];autosize=1;strokeColor=none;fillColor=none;" vertex="1" parent="1">
          <mxGeometry x="832" y="810" width="210" height="30" as="geometry" />
        </mxCell>
      </root>
    </mxGraphModel>
  </diagram>
</mxfile>
